<svg width="12" height="12" viewBox="0 0 12 12" fill="none" xmlns="http://www.w3.org/2000/svg">
<path fill-rule="evenodd" clip-rule="evenodd" d="M7.67692 5.95385L11.6769 1.92308C11.8615 1.73846 11.8615 1.46154 11.6769 1.27692L11.0615 0.630771C10.8769 0.446156 10.6 0.446156 10.4154 0.630771L6.38461 4.66154C6.26153 4.78462 6.07692 4.78462 5.95384 4.66154L1.92307 0.600002C1.73846 0.415386 1.46153 0.415386 1.27692 0.600002L0.630763 1.24616C0.446148 1.43077 0.446148 1.70769 0.630763 1.89231L4.66153 5.92308C4.78461 6.04616 4.78461 6.23077 4.66153 6.35385L0.599994 10.4154C0.415379 10.6 0.415379 10.8769 0.599994 11.0615L1.24615 11.7077C1.43076 11.8923 1.70769 11.8923 1.8923 11.7077L5.92307 7.67693C6.04615 7.55385 6.23076 7.55385 6.35384 7.67693L10.3846 11.7077C10.5692 11.8923 10.8461 11.8923 11.0308 11.7077L11.6769 11.0615C11.8615 10.8769 11.8615 10.6 11.6769 10.4154L7.67692 6.38462C7.55384 6.26154 7.55384 6.07693 7.67692 5.95385Z" fill="#747474"/>
</svg>
