<svg width="32" height="32" viewBox="0 0 32 32" fill="none" xmlns="http://www.w3.org/2000/svg">
<rect x="0.5" y="0.5" width="31" height="31" rx="3.5" fill="white"/>
<path fill-rule="evenodd" clip-rule="evenodd" d="M21.8154 8.61539H10.1846C9.32308 8.61539 8.61539 9.32308 8.61539 10.1846V21.7846C8.61539 22.6769 9.32308 23.3846 10.1846 23.3846H21.7846C22.6462 23.3846 23.3538 22.6769 23.3538 21.8154V10.1846C23.3846 9.32308 22.6769 8.61539 21.8154 8.61539ZM12.8308 20.2154C12.8308 20.4923 12.5846 20.7385 12.3077 20.7385H11.7846C11.5077 20.7385 11.2615 20.4923 11.2615 20.2154V17.3231C11.2615 17.0462 11.5077 16.8 11.7846 16.8H12.3077C12.5846 16.8 12.8308 17.0462 12.8308 17.3231V20.2154ZM15.4769 20.2148C15.4769 20.4918 15.2308 20.7379 14.9538 20.7379H14.4308C14.1538 20.7379 13.9077 20.4918 13.9077 20.2148V13.3533C13.9077 13.0764 14.1538 12.8302 14.4308 12.8302H14.9538C15.2308 12.8302 15.4769 13.0764 15.4769 13.3533V20.2148ZM18.1231 20.2157C18.1231 20.4926 17.8769 20.7388 17.6 20.7388H17.0769C16.8 20.7388 16.5539 20.4926 16.5539 20.2157V11.7849C16.5539 11.508 16.8 11.2619 17.0769 11.2619H17.6C17.8769 11.2619 18.1231 11.508 18.1231 11.7849V20.2157ZM20.7385 20.2154C20.7385 20.4923 20.4923 20.7385 20.2154 20.7385H19.6923C19.4154 20.7385 19.1692 20.4923 19.1692 20.2154V15.2C19.1692 14.9231 19.4154 14.6769 19.6923 14.6769H20.2154C20.4923 14.6769 20.7385 14.9231 20.7385 15.2V20.2154Z" fill="#FE9339"/>
<rect x="0.5" y="0.5" width="31" height="31" rx="3.5" stroke="#C9C9C9"/>
</svg>
