<svg viewBox="0 0 65 65" fill="none" xmlns="http://www.w3.org/2000/svg"><path d="M53.828 58.906H40.625v-9.14c0-.102 0-3.453 2.336-5.79l10.46-10.46h1.423a4.074 4.074 0 014.062 4.062V39l-7.414 7.414-1.422-1.422 6.805-6.804v-.61a2.037 2.037 0 00-2.031-2.031h-.61l-9.851 9.851c-1.727 1.727-1.727 4.368-1.727 4.368v7.109h9.14v-1.016c0-.101 0-2.437 2.337-4.773l7.11-7.11c1.726-1.726 1.726-3.25 1.726-3.351v-16.25a2.037 2.037 0 00-2.032-2.031 2.037 2.037 0 00-2.03 2.031V32.5h-2.032v-8.125a4.074 4.074 0 014.063-4.063A4.074 4.074 0 0165 24.375v16.25c0 .102 0 2.438-2.336 4.773l-7.11 7.11c-1.624 1.726-1.726 3.25-1.726 3.351v3.047z" fill="#032D60"></path><path d="M55.86 65h-2.032v-6.094H40.625V65h-2.031v-6.094c0-1.117.914-2.031 2.031-2.031h13.203c1.117 0 2.031.914 2.031 2.031V65zM24.375 58.906H11.172V55.86c0-.101-.102-1.625-1.727-3.351l-7.11-7.11C0 43.062 0 40.727 0 40.625v-16.25a4.074 4.074 0 014.063-4.063 4.074 4.074 0 014.062 4.063V32.5H6.094v-8.125a2.037 2.037 0 00-2.032-2.031 2.037 2.037 0 00-2.03 2.031v16.25c0 .102.1 1.625 1.726 3.352l7.11 7.109c2.335 2.336 2.335 4.672 2.335 4.773v1.016h9.14v-7.11s0-2.64-1.726-4.367l-9.851-9.851h-.61a2.037 2.037 0 00-2.031 2.031v.61l6.805 6.804-1.422 1.422L6.094 39v-1.422a4.074 4.074 0 014.062-4.062h1.422l10.461 10.46c2.336 2.337 2.336 5.688 2.336 5.79v9.14z" fill="#032D60"></path><path d="M26.406 65h-2.031v-6.094H11.172V65H9.14v-6.094c0-1.117.914-2.031 2.03-2.031h13.204c1.117 0 2.031.914 2.031 2.031V65zM54.844 22.344h-2.032c0-11.172-9.14-20.313-20.312-20.313s-20.313 9.14-20.313 20.313h-2.03C10.156 10.054 20.21 0 32.5 0c12.29 0 22.344 10.055 22.344 22.344zM12.188 24.375h-2.032v2.031h2.031v-2.031zM12.188 28.438h-2.032v2.03h2.031v-2.03zM54.844 24.375h-2.032v2.031h2.032v-2.031zM54.844 28.438h-2.032v2.03h2.032v-2.03z" fill="#032D60"></path><path d="M32.5 25.39c-3.86 0-6.094-4.163-6.094-8.124 0-3.657 1.016-6.094 6.094-6.094s6.094 2.437 6.094 6.094c0 3.96-2.235 8.125-6.094 8.125zm0-12.187c-3.453 0-4.063 1.016-4.063 4.063 0 2.945 1.524 6.093 4.063 6.093 2.54 0 4.063-3.148 4.063-6.093 0-3.047-.61-4.063-4.063-4.063z" fill="#032D60"></path><path d="M40.625 33.516h-16.25c-1.625 0-3.047-1.828-3.047-4.063v-2.031c0-.406.203-.711.508-.914l7.11-4.063 1.015 1.727-6.602 3.86v1.421c0 1.219.711 2.031 1.016 2.031h16.25c.305 0 1.016-.812 1.016-2.03V28.03l-6.602-3.758 1.016-1.726 7.11 4.062c.304.203.507.508.507.914v2.032c0 2.133-1.422 3.96-3.047 3.96z" fill="#032D60"></path></svg>