<svg width="32" height="32" viewBox="0 0 32 32" fill="none" xmlns="http://www.w3.org/2000/svg">
<rect x="0.5" y="0.5" width="31" height="31" rx="3.5" fill="white"/>
<rect x="8" y="8" width="16" height="16" rx="4" fill="#62B7ED"/>
<mask id="mask0_124_6423" style="mask-type:alpha" maskUnits="userSpaceOnUse" x="8" y="8" width="16" height="16">
<rect x="8" y="8" width="16" height="16" rx="4" fill="white"/>
</mask>
<g mask="url(#mask0_124_6423)">
<path d="M21.6667 20.0044V20.5333C21.6667 21.1567 21.1567 21.6667 20.5333 21.6667H11.4667C10.8433 21.6667 10.3333 21.1567 10.3333 20.5333V20.0044C10.3333 18.6256 11.9389 17.7944 13.45 17.1333C13.5067 17.1144 13.5445 17.0956 13.6011 17.0578C13.7145 17.0011 13.8467 17.0011 13.96 17.0767C14.5645 17.4733 15.2633 17.7 16 17.7C16.7367 17.7 17.4356 17.4733 18.04 17.0956C18.1533 17.02 18.2856 17.02 18.3989 17.0767C18.4556 17.0956 18.4933 17.1144 18.55 17.1522C20.0611 17.7944 21.6667 18.6256 21.6667 20.0044Z" fill="white"/>
<path d="M16 16.5667C17.5544 16.5667 18.8145 15.1713 18.8145 13.45C18.8145 11.7287 17.5544 10.3333 16 10.3333C14.4456 10.3333 13.1856 11.7287 13.1856 13.45C13.1856 15.1713 14.4456 16.5667 16 16.5667Z" fill="white"/>
</g>
<rect x="0.5" y="0.5" width="31" height="31" rx="3.5" stroke="#C9C9C9"/>
</svg>
