<?xml version="1.0" encoding="utf-8"?>
<svg version="1.1" xmlns:xlink="http://www.w3.org/1999/xlink" width="74px" height="74px" xmlns="http://www.w3.org/2000/svg">
  <g transform="matrix(1 0 0 1 -126 -98 )">
    <path d="M 10.7514730973451 47.4107456637168  C 6.87973481415929 37.6567139823009  8.78498923893805 26.9089015929204  15.1165307433628 19.1720444247788  L 15.0552908580531 23.4962534159292  L 23.7616285748673 23.6799765557522  L 24.0916491253097 4.49504434336284  L 4.91020080672566 4.16842929911505  L 4.72988317309735 12.8747670159292  L 8.96568835893805 12.9326057499115  C 0.198469597876104 23.1125434490266  -2.53029022513274 37.5550252189381  2.65452763327434 50.6257238030089  C 8.32944225274336 64.9358176083186  22.0302030315044 73.9381992012389  36.9046876332743 73.9381992012389  C 39.4155298987611 73.9381992012389  41.9604272261947 73.6796246030088  44.5053245536283 73.1522850171682  L 42.7259257925664 64.6262388047788  C 29.2702569430089 67.4297281499115  15.8206849076106 60.1931581322124  10.751619420885 47.4105775658407  Z M 71.3416122123894 23.370136460177  C 64.7072332389381 6.6518010619469  47.1076469026549 -2.82003522123894  29.4974346902655 0.847633982300883  L 31.2734366548673 9.37368019469026  C 44.7291055044248 6.57019084955752  58.178677539823 13.8067608672566  63.2477430265487 26.5823736460177  C 67.1228781061947 36.3433731150442  65.2142268849558 47.1016371858407  58.8758917876106 54.837623380531  L 58.9303276283186 50.4759625309734  L 50.2205931150443 50.3126550088495  L 49.9246014973452 69.4941033274336  L 69.1060498159292 69.7900949451327  L 69.2693573380531 61.0837572283186  L 65.0642104176991 61.0293213876106  C 73.8079128955752 50.8563514761062  76.5262210371681 36.4312891752212  71.3413160814159 23.370171299115  Z " fill-rule="nonzero" fill="#d7d7d7" stroke="none" transform="matrix(1 0 0 1 126 98 )" />
  </g>
</svg>