<svg width="32" height="32" viewBox="0 0 32 32" fill="none" xmlns="http://www.w3.org/2000/svg">
<rect x="1" y="1" width="30" height="30" rx="3" fill="white"/>
<rect x="8" y="8" width="16" height="16" rx="4" fill="#FE5C4C"/>
<path fill-rule="evenodd" clip-rule="evenodd" d="M16 10.4615C12.9539 10.4615 10.4615 12.9538 10.4615 16C10.4615 19.0462 12.9539 21.5385 16 21.5385C19.0462 21.5385 21.5385 19.0462 21.5385 16C21.5385 12.9538 19.0462 10.4615 16 10.4615ZM16 20.1538C13.7154 20.1538 11.8462 18.2846 11.8462 16C11.8462 13.7154 13.7154 11.8462 16 11.8462C18.2846 11.8462 20.1539 13.7154 20.1539 16C20.1539 18.2846 18.2846 20.1538 16 20.1538ZM16.7846 16.0462C16.7154 15.9769 16.6923 15.8846 16.6923 15.7923V13.5769C16.6923 13.3923 16.5308 13.2308 16.3462 13.2308H15.6539C15.4692 13.2308 15.3077 13.3923 15.3077 13.5769V16.3692C15.3077 16.4615 15.3539 16.5538 15.4 16.6231L17.1077 18.3308C17.2462 18.4692 17.4539 18.4692 17.5923 18.3308L18.0769 17.8462C18.2154 17.7077 18.2154 17.5 18.0769 17.3615L16.7846 16.0462Z" fill="white"/>
<rect x="1" y="1" width="30" height="30" rx="3" stroke="#C9C9C9" stroke-width="1"/>
</svg>
