<svg width="24" height="24" viewBox="0 0 24 24" fill="none" xmlns="http://www.w3.org/2000/svg">
<path fill-rule="evenodd" clip-rule="evenodd" d="M12 0.923096C5.90768 0.923096 0.923065 5.90771 0.923065 12C0.923065 18.0923 5.90768 23.0769 12 23.0769C18.0923 23.0769 23.0769 18.0923 23.0769 12C23.0769 5.90771 18.0923 0.923096 12 0.923096ZM12 20.3077C7.43076 20.3077 3.6923 16.5692 3.6923 12C3.6923 7.43079 7.43076 3.69233 12 3.69233C16.5692 3.69233 20.3077 7.43079 20.3077 12C20.3077 16.5692 16.5692 20.3077 12 20.3077ZM13.5692 12.0923C13.4308 11.9539 13.3846 11.7692 13.3846 11.5846V7.15386C13.3846 6.78463 13.0615 6.46156 12.6923 6.46156H11.3077C10.9385 6.46156 10.6154 6.78463 10.6154 7.15386V12.7385C10.6154 12.9231 10.7077 13.1077 10.8 13.2462L14.2154 16.6616C14.4923 16.9385 14.9077 16.9385 15.1846 16.6616L16.1538 15.6923C16.4308 15.4154 16.4308 15 16.1538 14.7231L13.5692 12.0923Z" fill="#BA0517"/>
</svg>
