<svg xmlns="http://www.w3.org/2000/svg" width="24" height="24" viewBox="0 0 24 24"><title>ic_service</title>
<g id="Icons"><path d="M6.41149 4.98822H7.14292C7.25263 4.98822 7.32577 4.91508 7.32577 4.80537V4.2568H9.88575V4.80537C9.88575 4.91508 9.95889 4.98822 10.0686 4.98822H10.8C10.9097 4.98822 10.9829 4.91508 10.9829 4.80537V4.2568C10.9829 3.65338 10.4892 3.15967 9.88575 3.15967H7.32577C6.72235 3.15967 6.22864 3.65338 6.22864 4.2568V4.80537C6.22864 4.91508 6.30178 4.98822 6.41149 4.98822Z" fill="white"/>
<path d="M12.9942 6.08545H4.21713C3.61371 6.08545 3.12 6.57916 3.12 7.18258V13.034C3.12 13.6374 3.61371 14.1311 4.21713 14.1311H12.9942C13.5976 14.1311 14.0913 13.6374 14.0913 13.034V7.18258C14.0913 6.57916 13.5976 6.08545 12.9942 6.08545Z" fill="white"/>
</g></svg>