<svg width="23" height="22" viewBox="0 0 23 22" fill="none" xmlns="http://www.w3.org/2000/svg">
<rect x="1.00391" y="1" width="20" height="20" rx="10" fill="white" stroke="#BA0517" stroke-width="2"/>
<path d="M16.3039 12.66C16.3039 12.68 16.3039 12.7 16.2839 12.7C16.2239 12.92 16.1439 13.14 16.0639 13.36C15.9639 13.6 15.8639 13.82 15.7439 14.04C15.5039 14.48 15.2039 14.88 14.8439 15.24C14.5039 15.6 14.1039 15.92 13.6639 16.18C13.2239 16.44 12.7639 16.64 12.2639 16.78C11.7639 16.92 11.2439 17 10.7239 17C7.56391 17 5.00391 14.44 5.00391 11.26C5.00391 8.08 7.56391 5.54 10.7239 5.54C11.7839 5.54 12.7839 5.84 13.6439 6.34C13.6439 6.34 13.6439 6.34 13.6639 6.34C14.0839 6.58 14.4639 6.88 14.7839 7.22C14.8839 7.3 14.9439 7.36 15.0239 7.46C15.2039 7.62 15.3439 7.52 15.3439 7.28V5.4C15.3439 5.18 15.5239 5 15.7439 5H16.5439C16.7639 5 16.9439 5.18 16.9839 5.4V10.3C16.9839 10.48 16.8239 10.66 16.6239 10.66H11.7239C11.5039 10.66 11.3439 10.5 11.3439 10.28V9.44C11.3439 9.22 11.5239 9.04 11.7439 9.04H13.6239C13.7839 9.04 13.9039 9 13.9639 8.9C13.2439 7.9 12.0439 7.24 10.7239 7.24C8.50391 7.24 6.70391 9.04 6.70391 11.26C6.70391 13.48 8.50391 15.28 10.7239 15.28C12.4639 15.28 13.9439 14.18 14.5039 12.62C14.5039 12.62 14.5639 12.26 14.8439 12.26C15.1239 12.26 15.8039 12.26 15.9839 12.26C16.1439 12.26 16.3039 12.38 16.3039 12.56C16.3039 12.6 16.3039 12.62 16.3039 12.66Z" fill="#BA0517"/>
</svg>
