<svg width="25" height="24" viewBox="0 0 25 24" fill="none" xmlns="http://www.w3.org/2000/svg">
<rect x="0.988281" width="24" height="24" rx="4" fill="#1589EE"/>
<mask id="mask0_159_23540" style="mask-type:alpha" maskUnits="userSpaceOnUse" x="0" y="0" width="25" height="24">
<rect x="0.988281" width="24" height="24" rx="4" fill="white"/>
</mask>
<g mask="url(#mask0_159_23540)">
<path fill-rule="evenodd" clip-rule="evenodd" d="M21.4883 4.91667C21.4883 4.12333 20.8649 3.5 20.0716 3.5H5.90495C5.11161 3.5 4.48828 4.12333 4.48828 4.91667V14.7483C4.48828 15.5417 5.11161 16.165 5.90495 16.165H20.0716C20.8649 16.165 21.4883 15.5417 21.4883 14.7483V4.91667ZM19.3633 13.5017C19.3633 13.785 19.1083 14.04 18.8249 14.04H7.15161C6.86828 14.04 6.61328 13.785 6.61328 13.5017V6.16333C6.61328 5.88 6.86828 5.625 7.15161 5.625H18.8249C19.1083 5.625 19.3633 5.88 19.3633 6.16333V13.5017ZM9.07828 19.7917C9.07828 18.9983 9.70161 18.375 10.4949 18.375H15.4816C16.2749 18.375 16.8983 18.9983 16.8983 19.7917V19.9617C16.8983 20.245 16.6433 20.5 16.3599 20.5H9.61661C9.33328 20.5 9.07828 20.245 9.07828 19.9617V19.7917Z" fill="white"/>
<path d="M10.2116 12.2552H8.62489C8.48322 12.2552 8.34155 12.1135 8.34155 11.9718V7.66517C8.34155 7.49517 8.48322 7.38184 8.62489 7.38184H10.2116C10.3532 7.38184 10.4949 7.49517 10.4949 7.66517V11.9718C10.4949 12.1135 10.3532 12.2552 10.2116 12.2552Z" fill="white"/>
<path d="M17.3517 12.2552H12.5067C12.3651 12.2552 12.2234 12.1135 12.2234 11.9718V7.66517C12.2234 7.5235 12.3651 7.38184 12.5067 7.38184H17.3517C17.4934 7.38184 17.6351 7.5235 17.6351 7.66517V11.9718C17.6351 12.1418 17.4934 12.2552 17.3517 12.2552Z" fill="white"/>
</g>
</svg>
