<svg width="22" height="22" viewBox="0 0 22 22" fill="none" xmlns="http://www.w3.org/2000/svg">
<rect x="1" y="1" width="20" height="20" rx="10" stroke="#BA0517" stroke-width="2"/>
<path d="M16.9 15.8201L13.58 12.5201C14.26 11.5801 14.6 10.3801 14.42 9.10012C14.12 6.96012 12.38 5.26012 10.2 5.06012C7.26001 4.76012 4.76001 7.26012 5.06001 10.2201C5.26001 12.3601 6.96001 14.1401 9.10001 14.4401C10.38 14.6201 11.56 14.2601 12.52 13.6001L15.84 16.9201C15.98 17.0601 16.22 17.0601 16.36 16.9201L16.88 16.4001C17.04 16.2201 17.04 15.9801 16.9 15.8201ZM6.54001 9.74012C6.54001 7.98012 7.98001 6.52012 9.76001 6.52012C11.54 6.52012 12.98 7.96012 12.98 9.74012C12.98 11.5201 11.54 12.9601 9.76001 12.9601C7.98001 12.9601 6.54001 11.5401 6.54001 9.74012Z" fill="#BA0517"/>
</svg>
