<svg width="8" height="7" viewBox="0 0 8 7" fill="none" xmlns="http://www.w3.org/2000/svg">
<path fill-rule="evenodd" clip-rule="evenodd" d="M7.56492 5.61837L4.5806 0.796553C4.42422 0.535914 4.08539 0.535914 3.92901 0.796553L0.944691 5.61837C0.762244 5.91811 0.944691 6.33513 1.27049 6.33513H7.23912C7.56492 6.33513 7.7604 5.91811 7.56492 5.61837ZM4.25481 5.29259C4.03327 5.29259 3.86385 5.12318 3.86385 4.90164C3.86385 4.68009 4.03327 4.51068 4.25481 4.51068C4.47635 4.51068 4.64577 4.68009 4.64577 4.90164C4.64577 5.12318 4.47635 5.29259 4.25481 5.29259ZM4.64577 4.11971C4.64577 4.19791 4.59364 4.25003 4.51545 4.25003H3.99417C3.91598 4.25003 3.86385 4.19791 3.86385 4.11971V2.42556C3.86385 2.34737 3.91598 2.29524 3.99417 2.29524H4.51545C4.59364 2.29524 4.64577 2.34737 4.64577 2.42556V4.11971Z" fill="white"/>
</svg>
